<svg width="17" height="23" viewBox="0 0 17 23" fill="none" xmlns="http://www.w3.org/2000/svg">
<path d="M7.57286 22.9583C7.45207 22.9582 7.33223 22.937 7.21869 22.8958C6.99968 22.8156 6.81391 22.6643 6.69115 22.466C6.56839 22.2676 6.51573 22.0339 6.54161 21.8021L7.34369 14.4167H1.20828C1.01904 14.417 0.833296 14.3657 0.671 14.2684C0.508704 14.171 0.375986 14.0313 0.287099 13.8643C0.198212 13.6972 0.156515 13.5091 0.166486 13.3201C0.176457 13.1311 0.23772 12.9484 0.343694 12.7917L8.56244 0.499999C8.69243 0.307643 8.88295 0.164223 9.10375 0.092509C9.32455 0.020795 9.56299 0.0248977 9.78119 0.104166C9.99096 0.182044 10.1701 0.3254 10.292 0.51301C10.414 0.70062 10.4723 0.922511 10.4583 1.14583L9.65619 8.58333H15.7916C15.9808 8.58305 16.1666 8.63432 16.3289 8.73164C16.4912 8.82896 16.6239 8.96866 16.7128 9.13572C16.8017 9.30278 16.8434 9.49091 16.8334 9.67988C16.8234 9.86886 16.7622 10.0515 16.6562 10.2083L8.43744 22.5C8.34189 22.6414 8.21308 22.7571 8.06232 22.837C7.91157 22.9169 7.74349 22.9586 7.57286 22.9583ZM3.15619 12.3333H8.49994C8.6453 12.3337 8.78898 12.3644 8.92173 12.4236C9.05449 12.4828 9.17339 12.5692 9.27078 12.6771C9.36908 12.7865 9.4431 12.9154 9.48799 13.0554C9.53287 13.1955 9.5476 13.3434 9.53119 13.4896L9.06244 17.8125L13.8437 10.6667H8.49994C8.35295 10.6676 8.20743 10.6373 8.07296 10.578C7.93848 10.5186 7.81809 10.4315 7.7197 10.3222C7.62131 10.213 7.54715 10.0842 7.50209 9.94431C7.45704 9.80439 7.4421 9.65652 7.45828 9.51042L7.92703 5.1875L3.15619 12.3333Z" fill="#149211"/>
</svg>
