<svg width="19" height="19" viewBox="0 0 19 19" fill="none" xmlns="http://www.w3.org/2000/svg">
<path d="M9.40632 18.9167C8.90331 18.9161 8.42068 18.7178 8.06257 18.3646L1.38548 11.6771C1.21414 11.5067 1.10735 11.2821 1.0834 11.0417L0.166732 1.30209C0.152699 1.14952 0.172497 0.995729 0.224712 0.851686C0.276928 0.707643 0.360275 0.576892 0.468815 0.468754C0.576953 0.360214 0.707704 0.276866 0.851747 0.224651C0.99579 0.172435 1.14958 0.152638 1.30215 0.166671L11.0417 1.08334C11.2822 1.10729 11.5068 1.21408 11.6771 1.38542L18.3647 8.0625C18.719 8.41788 18.9179 8.89923 18.9179 9.40104C18.9179 9.90286 18.719 10.3842 18.3647 10.7396L10.7396 18.3646C10.3854 18.7172 9.90616 18.9156 9.40632 18.9167ZM3.15631 10.4688L9.40632 16.7188L16.7501 9.375L10.5001 3.125L2.36465 2.36459L3.15631 10.4688Z" fill="#FFC700"/>
</svg>
